<?xml version="1.0" standalone="no"?>
<!DOCTYPE svg PUBLIC "-//W3C//DTD SVG 20010904//EN"
 "http://www.w3.org/TR/2001/REC-SVG-20010904/DTD/svg10.dtd">
<svg version="1.0" xmlns="http://www.w3.org/2000/svg"
 width="548.000000pt" height="548.000000pt" viewBox="0 0 548.000000 548.000000"
 preserveAspectRatio="xMidYMid meet">
<metadata>
Created by potrace 1.14, written by Peter Selinger 2001-2017
</metadata>
<g transform="translate(0.000000,548.000000) scale(0.100000,-0.100000)"
fill="#000000" stroke="none">
<path d="M2495 5224 c-121 -69 -242 -138 -270 -154 -27 -15 -106 -60 -175
-100 -69 -40 -150 -86 -180 -102 -30 -17 -59 -34 -65 -38 -5 -4 -30 -18 -55
-32 -25 -14 -171 -97 -325 -185 -154 -88 -300 -171 -325 -185 -25 -14 -74 -42
-110 -63 -36 -21 -81 -46 -100 -57 -19 -11 -53 -31 -75 -43 -22 -13 -63 -36
-91 -52 -212 -118 -346 -200 -360 -221 -14 -22 -16 -149 -16 -1258 0 -1073 2
-1238 15 -1257 8 -13 147 -98 308 -190 162 -92 305 -174 319 -182 136 -79 303
-175 306 -175 1 0 58 -32 126 -71 67 -39 143 -83 168 -97 25 -14 203 -115 395
-225 193 -110 366 -209 385 -220 19 -10 102 -58 184 -105 83 -47 165 -87 183
-89 37 -4 31 -7 668 357 215 123 404 231 420 240 17 9 253 145 525 300 272
156 508 291 523 299 16 9 36 21 45 26 9 6 51 29 92 53 90 51 103 60 118 89 9
16 12 335 12 1248 0 1112 -2 1229 -16 1254 -18 30 -21 32 -104 78 -30 17 -84
48 -120 68 -115 66 -134 77 -215 123 -44 25 -330 188 -635 362 -305 174 -575
328 -600 342 -49 28 -456 260 -505 288 -16 10 -62 36 -101 59 -40 23 -84 41
-100 41 -18 0 -109 -46 -249 -126z"/>
</g>
</svg>
